<svg width="15" height="15" viewBox="0 0 15 15" fill="none" xmlns="http://www.w3.org/2000/svg">
<path fill-rule="evenodd" clip-rule="evenodd" d="M12.8391 2.96027C12.1701 2.21184 11.2807 1.79999 10.3346 1.79999C9.38831 1.79999 8.59423 2.21184 7.925 2.96027L7.49998 3.63915L7.075 2.96027C6.40597 2.21184 5.61164 1.79999 4.66557 1.79999C3.71953 1.79999 2.82982 2.21184 2.16086 2.96027C0.779712 4.50548 0.779712 7.01962 2.16086 8.56423L7.10991 13.3207C7.19083 13.4115 7.29157 13.4672 7.39682 13.4886C7.43211 13.4964 7.46761 13.5 7.50317 13.5C7.64318 13.5 7.78341 13.4403 7.89004 13.3207L12.8391 8.56423C14.2203 7.01962 14.2203 4.50548 12.8391 2.96027Z" fill="#BCBFC2"/>
</svg>
